<mxfile host="app.diagrams.net" modified="2022-11-04T18:39:31.532Z" agent="5.0 (Windows NT 10.0; Win64; x64) AppleWebKit/537.36 (KHTML, like Gecko) Chrome/106.0.0.0 Safari/537.36" etag="KiIt6-7dgIBQ1ak8fl8h" version="20.5.1" type="github">
  <diagram id="GjCCPffMuT5cinbhj9Ao" name="Page-1">
    <mxGraphModel dx="2035" dy="628" grid="1" gridSize="10" guides="1" tooltips="1" connect="1" arrows="1" fold="1" page="1" pageScale="1" pageWidth="850" pageHeight="1100" math="0" shadow="0">
      <root>
        <mxCell id="0" />
        <mxCell id="1" parent="0" />
        <mxCell id="y5QNSgR7ZRJB72cQKX3N-2" value="VEHICLE" style="text;html=1;strokeColor=none;fillColor=none;align=center;verticalAlign=middle;whiteSpace=wrap;rounded=0;" vertex="1" parent="1">
          <mxGeometry x="40" y="60" width="60" height="30" as="geometry" />
        </mxCell>
        <mxCell id="y5QNSgR7ZRJB72cQKX3N-3" value="Model" style="rounded=0;whiteSpace=wrap;html=1;" vertex="1" parent="1">
          <mxGeometry x="120" y="90" width="80" height="20" as="geometry" />
        </mxCell>
        <mxCell id="y5QNSgR7ZRJB72cQKX3N-4" value="Vin" style="rounded=0;whiteSpace=wrap;html=1;fontStyle=4" vertex="1" parent="1">
          <mxGeometry x="40" y="90" width="80" height="20" as="geometry" />
        </mxCell>
        <mxCell id="y5QNSgR7ZRJB72cQKX3N-5" value="Price" style="rounded=0;whiteSpace=wrap;html=1;" vertex="1" parent="1">
          <mxGeometry x="200" y="90" width="80" height="20" as="geometry" />
        </mxCell>
        <mxCell id="y5QNSgR7ZRJB72cQKX3N-35" value="CAR" style="text;html=1;strokeColor=none;fillColor=none;align=center;verticalAlign=middle;whiteSpace=wrap;rounded=0;" vertex="1" parent="1">
          <mxGeometry x="30" y="130" width="60" height="30" as="geometry" />
        </mxCell>
        <mxCell id="y5QNSgR7ZRJB72cQKX3N-128" style="edgeStyle=orthogonalEdgeStyle;rounded=0;orthogonalLoop=1;jettySize=auto;html=1;entryX=0.25;entryY=1;entryDx=0;entryDy=0;" edge="1" parent="1" source="y5QNSgR7ZRJB72cQKX3N-37" target="y5QNSgR7ZRJB72cQKX3N-4">
          <mxGeometry relative="1" as="geometry">
            <Array as="points">
              <mxPoint x="10" y="170" />
              <mxPoint x="10" y="135" />
              <mxPoint x="60" y="135" />
            </Array>
          </mxGeometry>
        </mxCell>
        <mxCell id="y5QNSgR7ZRJB72cQKX3N-37" value="&lt;u&gt;Vin&lt;/u&gt;" style="rounded=0;whiteSpace=wrap;html=1;" vertex="1" parent="1">
          <mxGeometry x="40" y="160" width="80" height="20" as="geometry" />
        </mxCell>
        <mxCell id="y5QNSgR7ZRJB72cQKX3N-38" value="Engine_Size" style="rounded=0;whiteSpace=wrap;html=1;" vertex="1" parent="1">
          <mxGeometry x="120" y="160" width="80" height="20" as="geometry" />
        </mxCell>
        <mxCell id="y5QNSgR7ZRJB72cQKX3N-39" value="TRUCK" style="text;html=1;strokeColor=none;fillColor=none;align=center;verticalAlign=middle;whiteSpace=wrap;rounded=0;" vertex="1" parent="1">
          <mxGeometry x="300" y="130" width="60" height="30" as="geometry" />
        </mxCell>
        <mxCell id="y5QNSgR7ZRJB72cQKX3N-129" style="edgeStyle=orthogonalEdgeStyle;rounded=0;orthogonalLoop=1;jettySize=auto;html=1;" edge="1" parent="1" source="y5QNSgR7ZRJB72cQKX3N-41">
          <mxGeometry relative="1" as="geometry">
            <mxPoint x="70" y="110" as="targetPoint" />
            <Array as="points">
              <mxPoint x="280" y="170" />
              <mxPoint x="280" y="130" />
              <mxPoint x="70" y="130" />
              <mxPoint x="70" y="110" />
            </Array>
          </mxGeometry>
        </mxCell>
        <mxCell id="y5QNSgR7ZRJB72cQKX3N-41" value="&lt;u&gt;Vin&lt;/u&gt;" style="rounded=0;whiteSpace=wrap;html=1;" vertex="1" parent="1">
          <mxGeometry x="300" y="160" width="80" height="20" as="geometry" />
        </mxCell>
        <mxCell id="y5QNSgR7ZRJB72cQKX3N-42" value="Tonnage" style="rounded=0;whiteSpace=wrap;html=1;" vertex="1" parent="1">
          <mxGeometry x="380" y="160" width="80" height="20" as="geometry" />
        </mxCell>
        <mxCell id="y5QNSgR7ZRJB72cQKX3N-49" value="SUV" style="text;html=1;strokeColor=none;fillColor=none;align=center;verticalAlign=middle;whiteSpace=wrap;rounded=0;" vertex="1" parent="1">
          <mxGeometry x="560" y="130" width="60" height="30" as="geometry" />
        </mxCell>
        <mxCell id="y5QNSgR7ZRJB72cQKX3N-130" style="edgeStyle=orthogonalEdgeStyle;rounded=0;orthogonalLoop=1;jettySize=auto;html=1;entryX=0.5;entryY=1;entryDx=0;entryDy=0;" edge="1" parent="1" source="y5QNSgR7ZRJB72cQKX3N-50" target="y5QNSgR7ZRJB72cQKX3N-4">
          <mxGeometry relative="1" as="geometry">
            <Array as="points">
              <mxPoint x="520" y="170" />
              <mxPoint x="520" y="120" />
              <mxPoint x="80" y="120" />
            </Array>
          </mxGeometry>
        </mxCell>
        <mxCell id="y5QNSgR7ZRJB72cQKX3N-50" value="&lt;u&gt;Vin&lt;/u&gt;" style="rounded=0;whiteSpace=wrap;html=1;" vertex="1" parent="1">
          <mxGeometry x="560" y="160" width="80" height="20" as="geometry" />
        </mxCell>
        <mxCell id="y5QNSgR7ZRJB72cQKX3N-51" value="No_seats" style="rounded=0;whiteSpace=wrap;html=1;" vertex="1" parent="1">
          <mxGeometry x="640" y="160" width="80" height="20" as="geometry" />
        </mxCell>
        <mxCell id="y5QNSgR7ZRJB72cQKX3N-77" value="VEHICLE" style="text;html=1;strokeColor=none;fillColor=none;align=center;verticalAlign=middle;whiteSpace=wrap;rounded=0;" vertex="1" parent="1">
          <mxGeometry x="40" y="420" width="60" height="30" as="geometry" />
        </mxCell>
        <mxCell id="y5QNSgR7ZRJB72cQKX3N-78" value="Model" style="rounded=0;whiteSpace=wrap;html=1;" vertex="1" parent="1">
          <mxGeometry x="120" y="450" width="80" height="20" as="geometry" />
        </mxCell>
        <mxCell id="y5QNSgR7ZRJB72cQKX3N-79" value="Vin" style="rounded=0;whiteSpace=wrap;html=1;fontStyle=4" vertex="1" parent="1">
          <mxGeometry x="40" y="450" width="80" height="20" as="geometry" />
        </mxCell>
        <mxCell id="y5QNSgR7ZRJB72cQKX3N-80" value="Price" style="rounded=0;whiteSpace=wrap;html=1;" vertex="1" parent="1">
          <mxGeometry x="200" y="450" width="80" height="20" as="geometry" />
        </mxCell>
        <mxCell id="y5QNSgR7ZRJB72cQKX3N-81" value="&lt;u&gt;Vin&lt;/u&gt;" style="rounded=0;whiteSpace=wrap;html=1;" vertex="1" parent="1">
          <mxGeometry x="40" y="520" width="80" height="20" as="geometry" />
        </mxCell>
        <mxCell id="y5QNSgR7ZRJB72cQKX3N-82" value="Engine_Size" style="rounded=0;whiteSpace=wrap;html=1;" vertex="1" parent="1">
          <mxGeometry x="280" y="520" width="80" height="20" as="geometry" />
        </mxCell>
        <mxCell id="y5QNSgR7ZRJB72cQKX3N-83" value="TRUCK" style="text;html=1;strokeColor=none;fillColor=none;align=center;verticalAlign=middle;whiteSpace=wrap;rounded=0;" vertex="1" parent="1">
          <mxGeometry x="40" y="550" width="60" height="30" as="geometry" />
        </mxCell>
        <mxCell id="y5QNSgR7ZRJB72cQKX3N-84" value="&lt;u&gt;Vin&lt;/u&gt;" style="rounded=0;whiteSpace=wrap;html=1;" vertex="1" parent="1">
          <mxGeometry x="40" y="580" width="80" height="20" as="geometry" />
        </mxCell>
        <mxCell id="y5QNSgR7ZRJB72cQKX3N-85" value="Tonnage" style="rounded=0;whiteSpace=wrap;html=1;" vertex="1" parent="1">
          <mxGeometry x="280" y="580" width="80" height="20" as="geometry" />
        </mxCell>
        <mxCell id="y5QNSgR7ZRJB72cQKX3N-86" value="SUV" style="text;html=1;strokeColor=none;fillColor=none;align=center;verticalAlign=middle;whiteSpace=wrap;rounded=0;" vertex="1" parent="1">
          <mxGeometry x="40" y="610" width="60" height="30" as="geometry" />
        </mxCell>
        <mxCell id="y5QNSgR7ZRJB72cQKX3N-87" value="&lt;u&gt;Vin&lt;/u&gt;" style="rounded=0;whiteSpace=wrap;html=1;" vertex="1" parent="1">
          <mxGeometry x="40" y="640" width="80" height="20" as="geometry" />
        </mxCell>
        <mxCell id="y5QNSgR7ZRJB72cQKX3N-88" value="No_seats" style="rounded=0;whiteSpace=wrap;html=1;" vertex="1" parent="1">
          <mxGeometry x="280" y="640" width="80" height="20" as="geometry" />
        </mxCell>
        <mxCell id="y5QNSgR7ZRJB72cQKX3N-89" value="VEHICLE" style="text;html=1;strokeColor=none;fillColor=none;align=center;verticalAlign=middle;whiteSpace=wrap;rounded=0;" vertex="1" parent="1">
          <mxGeometry x="40" y="930" width="60" height="30" as="geometry" />
        </mxCell>
        <mxCell id="y5QNSgR7ZRJB72cQKX3N-90" value="Model" style="rounded=0;whiteSpace=wrap;html=1;" vertex="1" parent="1">
          <mxGeometry x="120" y="960" width="80" height="20" as="geometry" />
        </mxCell>
        <mxCell id="y5QNSgR7ZRJB72cQKX3N-91" value="Vin" style="rounded=0;whiteSpace=wrap;html=1;fontStyle=4" vertex="1" parent="1">
          <mxGeometry x="40" y="960" width="80" height="20" as="geometry" />
        </mxCell>
        <mxCell id="y5QNSgR7ZRJB72cQKX3N-92" value="Price" style="rounded=0;whiteSpace=wrap;html=1;" vertex="1" parent="1">
          <mxGeometry x="200" y="960" width="80" height="20" as="geometry" />
        </mxCell>
        <mxCell id="y5QNSgR7ZRJB72cQKX3N-94" value="Engine_Size" style="rounded=0;whiteSpace=wrap;html=1;" vertex="1" parent="1">
          <mxGeometry x="280" y="960" width="80" height="20" as="geometry" />
        </mxCell>
        <mxCell id="y5QNSgR7ZRJB72cQKX3N-95" value="(B)" style="text;html=1;strokeColor=none;fillColor=none;align=center;verticalAlign=middle;whiteSpace=wrap;rounded=0;" vertex="1" parent="1">
          <mxGeometry x="-10" y="420" width="60" height="30" as="geometry" />
        </mxCell>
        <mxCell id="y5QNSgR7ZRJB72cQKX3N-97" value="Tonnage" style="rounded=0;whiteSpace=wrap;html=1;" vertex="1" parent="1">
          <mxGeometry x="360" y="960" width="80" height="20" as="geometry" />
        </mxCell>
        <mxCell id="y5QNSgR7ZRJB72cQKX3N-100" value="No_seats" style="rounded=0;whiteSpace=wrap;html=1;" vertex="1" parent="1">
          <mxGeometry x="440" y="960" width="80" height="20" as="geometry" />
        </mxCell>
        <mxCell id="y5QNSgR7ZRJB72cQKX3N-101" value="VEHICLE" style="text;html=1;strokeColor=none;fillColor=none;align=center;verticalAlign=middle;whiteSpace=wrap;rounded=0;" vertex="1" parent="1">
          <mxGeometry x="40" y="1240" width="60" height="30" as="geometry" />
        </mxCell>
        <mxCell id="y5QNSgR7ZRJB72cQKX3N-102" value="Model" style="rounded=0;whiteSpace=wrap;html=1;" vertex="1" parent="1">
          <mxGeometry x="120" y="1270" width="80" height="20" as="geometry" />
        </mxCell>
        <mxCell id="y5QNSgR7ZRJB72cQKX3N-103" value="Vin" style="rounded=0;whiteSpace=wrap;html=1;fontStyle=4" vertex="1" parent="1">
          <mxGeometry x="40" y="1270" width="80" height="20" as="geometry" />
        </mxCell>
        <mxCell id="y5QNSgR7ZRJB72cQKX3N-104" value="Price" style="rounded=0;whiteSpace=wrap;html=1;" vertex="1" parent="1">
          <mxGeometry x="200" y="1270" width="80" height="20" as="geometry" />
        </mxCell>
        <mxCell id="y5QNSgR7ZRJB72cQKX3N-105" value="CrFlag" style="rounded=0;whiteSpace=wrap;html=1;fontStyle=0" vertex="1" parent="1">
          <mxGeometry x="280" y="1270" width="80" height="20" as="geometry" />
        </mxCell>
        <mxCell id="y5QNSgR7ZRJB72cQKX3N-106" value="Engine_Size" style="rounded=0;whiteSpace=wrap;html=1;" vertex="1" parent="1">
          <mxGeometry x="360" y="1270" width="80" height="20" as="geometry" />
        </mxCell>
        <mxCell id="y5QNSgR7ZRJB72cQKX3N-108" value="&lt;span&gt;TrckFlag&lt;/span&gt;" style="rounded=0;whiteSpace=wrap;html=1;fontStyle=0" vertex="1" parent="1">
          <mxGeometry x="440" y="1270" width="80" height="20" as="geometry" />
        </mxCell>
        <mxCell id="y5QNSgR7ZRJB72cQKX3N-109" value="Tonnage" style="rounded=0;whiteSpace=wrap;html=1;" vertex="1" parent="1">
          <mxGeometry x="520" y="1270" width="80" height="20" as="geometry" />
        </mxCell>
        <mxCell id="y5QNSgR7ZRJB72cQKX3N-111" value="&lt;span&gt;SVFlag&lt;/span&gt;" style="rounded=0;whiteSpace=wrap;html=1;fontStyle=0" vertex="1" parent="1">
          <mxGeometry x="600" y="1270" width="80" height="20" as="geometry" />
        </mxCell>
        <mxCell id="y5QNSgR7ZRJB72cQKX3N-112" value="No_seats" style="rounded=0;whiteSpace=wrap;html=1;" vertex="1" parent="1">
          <mxGeometry x="680" y="1270" width="80" height="20" as="geometry" />
        </mxCell>
        <mxCell id="y5QNSgR7ZRJB72cQKX3N-114" value="CAR" style="text;html=1;strokeColor=none;fillColor=none;align=center;verticalAlign=middle;whiteSpace=wrap;rounded=0;" vertex="1" parent="1">
          <mxGeometry x="30" y="490" width="60" height="30" as="geometry" />
        </mxCell>
        <mxCell id="y5QNSgR7ZRJB72cQKX3N-115" value="(C)" style="text;html=1;strokeColor=none;fillColor=none;align=center;verticalAlign=middle;whiteSpace=wrap;rounded=0;" vertex="1" parent="1">
          <mxGeometry x="-10" y="930" width="60" height="30" as="geometry" />
        </mxCell>
        <mxCell id="y5QNSgR7ZRJB72cQKX3N-116" value="(A)" style="text;html=1;strokeColor=none;fillColor=none;align=center;verticalAlign=middle;whiteSpace=wrap;rounded=0;" vertex="1" parent="1">
          <mxGeometry x="-10" y="60" width="60" height="30" as="geometry" />
        </mxCell>
        <mxCell id="y5QNSgR7ZRJB72cQKX3N-117" value="(D)" style="text;html=1;strokeColor=none;fillColor=none;align=center;verticalAlign=middle;whiteSpace=wrap;rounded=0;" vertex="1" parent="1">
          <mxGeometry y="1240" width="60" height="30" as="geometry" />
        </mxCell>
        <mxCell id="y5QNSgR7ZRJB72cQKX3N-121" value="Model" style="rounded=0;whiteSpace=wrap;html=1;" vertex="1" parent="1">
          <mxGeometry x="120" y="520" width="80" height="20" as="geometry" />
        </mxCell>
        <mxCell id="y5QNSgR7ZRJB72cQKX3N-122" value="Price" style="rounded=0;whiteSpace=wrap;html=1;" vertex="1" parent="1">
          <mxGeometry x="200" y="520" width="80" height="20" as="geometry" />
        </mxCell>
        <mxCell id="y5QNSgR7ZRJB72cQKX3N-123" value="Model" style="rounded=0;whiteSpace=wrap;html=1;" vertex="1" parent="1">
          <mxGeometry x="120" y="580" width="80" height="20" as="geometry" />
        </mxCell>
        <mxCell id="y5QNSgR7ZRJB72cQKX3N-124" value="Price" style="rounded=0;whiteSpace=wrap;html=1;" vertex="1" parent="1">
          <mxGeometry x="200" y="580" width="80" height="20" as="geometry" />
        </mxCell>
        <mxCell id="y5QNSgR7ZRJB72cQKX3N-125" value="Model" style="rounded=0;whiteSpace=wrap;html=1;" vertex="1" parent="1">
          <mxGeometry x="120" y="640" width="80" height="20" as="geometry" />
        </mxCell>
        <mxCell id="y5QNSgR7ZRJB72cQKX3N-126" value="Price" style="rounded=0;whiteSpace=wrap;html=1;" vertex="1" parent="1">
          <mxGeometry x="200" y="640" width="80" height="20" as="geometry" />
        </mxCell>
        <mxCell id="y5QNSgR7ZRJB72cQKX3N-131" value="SALESPERSON" style="text;html=1;strokeColor=none;fillColor=none;align=center;verticalAlign=middle;whiteSpace=wrap;rounded=0;" vertex="1" parent="1">
          <mxGeometry x="60" y="200" width="60" height="30" as="geometry" />
        </mxCell>
        <mxCell id="y5QNSgR7ZRJB72cQKX3N-132" value="Name" style="rounded=0;whiteSpace=wrap;html=1;" vertex="1" parent="1">
          <mxGeometry x="120" y="230" width="80" height="20" as="geometry" />
        </mxCell>
        <mxCell id="y5QNSgR7ZRJB72cQKX3N-133" value="Sid" style="rounded=0;whiteSpace=wrap;html=1;fontStyle=4" vertex="1" parent="1">
          <mxGeometry x="40" y="230" width="80" height="20" as="geometry" />
        </mxCell>
        <mxCell id="y5QNSgR7ZRJB72cQKX3N-135" value="CUSTOMER" style="text;html=1;strokeColor=none;fillColor=none;align=center;verticalAlign=middle;whiteSpace=wrap;rounded=0;" vertex="1" parent="1">
          <mxGeometry x="50" y="270" width="60" height="30" as="geometry" />
        </mxCell>
        <mxCell id="y5QNSgR7ZRJB72cQKX3N-136" value="Name" style="rounded=0;whiteSpace=wrap;html=1;" vertex="1" parent="1">
          <mxGeometry x="120" y="300" width="80" height="20" as="geometry" />
        </mxCell>
        <mxCell id="y5QNSgR7ZRJB72cQKX3N-137" value="Ssn" style="rounded=0;whiteSpace=wrap;html=1;fontStyle=4" vertex="1" parent="1">
          <mxGeometry x="40" y="300" width="80" height="20" as="geometry" />
        </mxCell>
        <mxCell id="y5QNSgR7ZRJB72cQKX3N-138" value="City" style="rounded=0;whiteSpace=wrap;html=1;" vertex="1" parent="1">
          <mxGeometry x="200" y="300" width="80" height="20" as="geometry" />
        </mxCell>
        <mxCell id="y5QNSgR7ZRJB72cQKX3N-139" value="State" style="rounded=0;whiteSpace=wrap;html=1;" vertex="1" parent="1">
          <mxGeometry x="280" y="300" width="80" height="20" as="geometry" />
        </mxCell>
        <mxCell id="y5QNSgR7ZRJB72cQKX3N-140" value="Street" style="rounded=0;whiteSpace=wrap;html=1;" vertex="1" parent="1">
          <mxGeometry x="360" y="300" width="80" height="20" as="geometry" />
        </mxCell>
        <mxCell id="y5QNSgR7ZRJB72cQKX3N-141" value="SALESPERSON" style="text;html=1;strokeColor=none;fillColor=none;align=center;verticalAlign=middle;whiteSpace=wrap;rounded=0;" vertex="1" parent="1">
          <mxGeometry x="60" y="680" width="60" height="30" as="geometry" />
        </mxCell>
        <mxCell id="y5QNSgR7ZRJB72cQKX3N-142" value="Name" style="rounded=0;whiteSpace=wrap;html=1;" vertex="1" parent="1">
          <mxGeometry x="120" y="710" width="80" height="20" as="geometry" />
        </mxCell>
        <mxCell id="y5QNSgR7ZRJB72cQKX3N-143" value="Sid" style="rounded=0;whiteSpace=wrap;html=1;fontStyle=4" vertex="1" parent="1">
          <mxGeometry x="40" y="710" width="80" height="20" as="geometry" />
        </mxCell>
        <mxCell id="y5QNSgR7ZRJB72cQKX3N-144" value="CUSTOMER" style="text;html=1;strokeColor=none;fillColor=none;align=center;verticalAlign=middle;whiteSpace=wrap;rounded=0;" vertex="1" parent="1">
          <mxGeometry x="50" y="740" width="60" height="30" as="geometry" />
        </mxCell>
        <mxCell id="y5QNSgR7ZRJB72cQKX3N-145" value="Name" style="rounded=0;whiteSpace=wrap;html=1;" vertex="1" parent="1">
          <mxGeometry x="120" y="770" width="80" height="20" as="geometry" />
        </mxCell>
        <mxCell id="y5QNSgR7ZRJB72cQKX3N-146" value="Ssn" style="rounded=0;whiteSpace=wrap;html=1;fontStyle=4" vertex="1" parent="1">
          <mxGeometry x="40" y="770" width="80" height="20" as="geometry" />
        </mxCell>
        <mxCell id="y5QNSgR7ZRJB72cQKX3N-147" value="City" style="rounded=0;whiteSpace=wrap;html=1;" vertex="1" parent="1">
          <mxGeometry x="200" y="770" width="80" height="20" as="geometry" />
        </mxCell>
        <mxCell id="y5QNSgR7ZRJB72cQKX3N-148" value="State" style="rounded=0;whiteSpace=wrap;html=1;" vertex="1" parent="1">
          <mxGeometry x="280" y="770" width="80" height="20" as="geometry" />
        </mxCell>
        <mxCell id="y5QNSgR7ZRJB72cQKX3N-149" value="Street" style="rounded=0;whiteSpace=wrap;html=1;" vertex="1" parent="1">
          <mxGeometry x="360" y="770" width="80" height="20" as="geometry" />
        </mxCell>
        <mxCell id="y5QNSgR7ZRJB72cQKX3N-150" value="SALESPERSON" style="text;html=1;strokeColor=none;fillColor=none;align=center;verticalAlign=middle;whiteSpace=wrap;rounded=0;" vertex="1" parent="1">
          <mxGeometry x="60" y="1000" width="60" height="30" as="geometry" />
        </mxCell>
        <mxCell id="y5QNSgR7ZRJB72cQKX3N-151" value="Name" style="rounded=0;whiteSpace=wrap;html=1;" vertex="1" parent="1">
          <mxGeometry x="120" y="1030" width="80" height="20" as="geometry" />
        </mxCell>
        <mxCell id="y5QNSgR7ZRJB72cQKX3N-152" value="Sid" style="rounded=0;whiteSpace=wrap;html=1;fontStyle=4" vertex="1" parent="1">
          <mxGeometry x="40" y="1030" width="80" height="20" as="geometry" />
        </mxCell>
        <mxCell id="y5QNSgR7ZRJB72cQKX3N-153" value="CUSTOMER" style="text;html=1;strokeColor=none;fillColor=none;align=center;verticalAlign=middle;whiteSpace=wrap;rounded=0;" vertex="1" parent="1">
          <mxGeometry x="50" y="1060" width="60" height="30" as="geometry" />
        </mxCell>
        <mxCell id="y5QNSgR7ZRJB72cQKX3N-154" value="Name" style="rounded=0;whiteSpace=wrap;html=1;" vertex="1" parent="1">
          <mxGeometry x="120" y="1090" width="80" height="20" as="geometry" />
        </mxCell>
        <mxCell id="y5QNSgR7ZRJB72cQKX3N-155" value="Ssn" style="rounded=0;whiteSpace=wrap;html=1;fontStyle=4" vertex="1" parent="1">
          <mxGeometry x="40" y="1090" width="80" height="20" as="geometry" />
        </mxCell>
        <mxCell id="y5QNSgR7ZRJB72cQKX3N-156" value="City" style="rounded=0;whiteSpace=wrap;html=1;" vertex="1" parent="1">
          <mxGeometry x="200" y="1090" width="80" height="20" as="geometry" />
        </mxCell>
        <mxCell id="y5QNSgR7ZRJB72cQKX3N-157" value="State" style="rounded=0;whiteSpace=wrap;html=1;" vertex="1" parent="1">
          <mxGeometry x="280" y="1090" width="80" height="20" as="geometry" />
        </mxCell>
        <mxCell id="y5QNSgR7ZRJB72cQKX3N-158" value="Street" style="rounded=0;whiteSpace=wrap;html=1;" vertex="1" parent="1">
          <mxGeometry x="360" y="1090" width="80" height="20" as="geometry" />
        </mxCell>
        <mxCell id="y5QNSgR7ZRJB72cQKX3N-159" value="SALESPERSON" style="text;html=1;strokeColor=none;fillColor=none;align=center;verticalAlign=middle;whiteSpace=wrap;rounded=0;" vertex="1" parent="1">
          <mxGeometry x="60" y="1320" width="60" height="30" as="geometry" />
        </mxCell>
        <mxCell id="y5QNSgR7ZRJB72cQKX3N-160" value="Name" style="rounded=0;whiteSpace=wrap;html=1;" vertex="1" parent="1">
          <mxGeometry x="120" y="1350" width="80" height="20" as="geometry" />
        </mxCell>
        <mxCell id="y5QNSgR7ZRJB72cQKX3N-161" value="Sid" style="rounded=0;whiteSpace=wrap;html=1;fontStyle=4" vertex="1" parent="1">
          <mxGeometry x="40" y="1350" width="80" height="20" as="geometry" />
        </mxCell>
        <mxCell id="y5QNSgR7ZRJB72cQKX3N-162" value="CUSTOMER" style="text;html=1;strokeColor=none;fillColor=none;align=center;verticalAlign=middle;whiteSpace=wrap;rounded=0;" vertex="1" parent="1">
          <mxGeometry x="50" y="1380" width="60" height="30" as="geometry" />
        </mxCell>
        <mxCell id="y5QNSgR7ZRJB72cQKX3N-163" value="Name" style="rounded=0;whiteSpace=wrap;html=1;" vertex="1" parent="1">
          <mxGeometry x="120" y="1410" width="80" height="20" as="geometry" />
        </mxCell>
        <mxCell id="y5QNSgR7ZRJB72cQKX3N-164" value="Ssn" style="rounded=0;whiteSpace=wrap;html=1;fontStyle=4" vertex="1" parent="1">
          <mxGeometry x="40" y="1410" width="80" height="20" as="geometry" />
        </mxCell>
        <mxCell id="y5QNSgR7ZRJB72cQKX3N-165" value="City" style="rounded=0;whiteSpace=wrap;html=1;" vertex="1" parent="1">
          <mxGeometry x="200" y="1410" width="80" height="20" as="geometry" />
        </mxCell>
        <mxCell id="y5QNSgR7ZRJB72cQKX3N-166" value="State" style="rounded=0;whiteSpace=wrap;html=1;" vertex="1" parent="1">
          <mxGeometry x="280" y="1410" width="80" height="20" as="geometry" />
        </mxCell>
        <mxCell id="y5QNSgR7ZRJB72cQKX3N-167" value="Street" style="rounded=0;whiteSpace=wrap;html=1;" vertex="1" parent="1">
          <mxGeometry x="360" y="1410" width="80" height="20" as="geometry" />
        </mxCell>
        <mxCell id="y5QNSgR7ZRJB72cQKX3N-168" value="SALE" style="text;html=1;strokeColor=none;fillColor=none;align=center;verticalAlign=middle;whiteSpace=wrap;rounded=0;" vertex="1" parent="1">
          <mxGeometry x="30" y="350" width="60" height="30" as="geometry" />
        </mxCell>
        <mxCell id="y5QNSgR7ZRJB72cQKX3N-169" value="Date" style="rounded=0;whiteSpace=wrap;html=1;" vertex="1" parent="1">
          <mxGeometry x="280" y="380" width="80" height="20" as="geometry" />
        </mxCell>
        <mxCell id="y5QNSgR7ZRJB72cQKX3N-176" style="edgeStyle=orthogonalEdgeStyle;rounded=0;orthogonalLoop=1;jettySize=auto;html=1;entryX=0.25;entryY=1;entryDx=0;entryDy=0;" edge="1" parent="1" source="y5QNSgR7ZRJB72cQKX3N-170" target="y5QNSgR7ZRJB72cQKX3N-133">
          <mxGeometry relative="1" as="geometry">
            <Array as="points">
              <mxPoint x="160" y="350" />
              <mxPoint x="30" y="350" />
              <mxPoint x="30" y="270" />
              <mxPoint x="60" y="270" />
            </Array>
          </mxGeometry>
        </mxCell>
        <mxCell id="y5QNSgR7ZRJB72cQKX3N-170" value="Sid" style="rounded=0;whiteSpace=wrap;html=1;fontStyle=4" vertex="1" parent="1">
          <mxGeometry x="120" y="380" width="80" height="20" as="geometry" />
        </mxCell>
        <mxCell id="y5QNSgR7ZRJB72cQKX3N-177" style="edgeStyle=orthogonalEdgeStyle;rounded=0;orthogonalLoop=1;jettySize=auto;html=1;" edge="1" parent="1" source="y5QNSgR7ZRJB72cQKX3N-173" target="y5QNSgR7ZRJB72cQKX3N-4">
          <mxGeometry relative="1" as="geometry">
            <mxPoint y="120" as="targetPoint" />
            <Array as="points">
              <mxPoint x="-10" y="390" />
              <mxPoint x="-10" y="130" />
              <mxPoint x="50" y="130" />
            </Array>
          </mxGeometry>
        </mxCell>
        <mxCell id="y5QNSgR7ZRJB72cQKX3N-173" value="Vin" style="rounded=0;whiteSpace=wrap;html=1;fontStyle=4" vertex="1" parent="1">
          <mxGeometry x="40" y="380" width="80" height="20" as="geometry" />
        </mxCell>
        <mxCell id="y5QNSgR7ZRJB72cQKX3N-178" style="edgeStyle=orthogonalEdgeStyle;rounded=0;orthogonalLoop=1;jettySize=auto;html=1;entryX=0.5;entryY=1;entryDx=0;entryDy=0;" edge="1" parent="1" source="y5QNSgR7ZRJB72cQKX3N-175" target="y5QNSgR7ZRJB72cQKX3N-137">
          <mxGeometry relative="1" as="geometry">
            <Array as="points">
              <mxPoint x="230" y="340" />
              <mxPoint x="80" y="340" />
            </Array>
          </mxGeometry>
        </mxCell>
        <mxCell id="y5QNSgR7ZRJB72cQKX3N-175" value="Ssn" style="rounded=0;whiteSpace=wrap;html=1;fontStyle=4" vertex="1" parent="1">
          <mxGeometry x="200" y="380" width="80" height="20" as="geometry" />
        </mxCell>
        <mxCell id="y5QNSgR7ZRJB72cQKX3N-179" value="SALE" style="text;html=1;strokeColor=none;fillColor=none;align=center;verticalAlign=middle;whiteSpace=wrap;rounded=0;" vertex="1" parent="1">
          <mxGeometry x="30" y="840" width="60" height="30" as="geometry" />
        </mxCell>
        <mxCell id="y5QNSgR7ZRJB72cQKX3N-180" value="Date" style="rounded=0;whiteSpace=wrap;html=1;" vertex="1" parent="1">
          <mxGeometry x="280" y="870" width="80" height="20" as="geometry" />
        </mxCell>
        <mxCell id="y5QNSgR7ZRJB72cQKX3N-187" style="edgeStyle=orthogonalEdgeStyle;rounded=0;orthogonalLoop=1;jettySize=auto;html=1;entryX=0;entryY=0.75;entryDx=0;entryDy=0;" edge="1" parent="1" source="y5QNSgR7ZRJB72cQKX3N-181" target="y5QNSgR7ZRJB72cQKX3N-143">
          <mxGeometry relative="1" as="geometry">
            <Array as="points">
              <mxPoint x="160" y="840" />
              <mxPoint x="20" y="840" />
              <mxPoint x="20" y="725" />
            </Array>
          </mxGeometry>
        </mxCell>
        <mxCell id="y5QNSgR7ZRJB72cQKX3N-181" value="Sid" style="rounded=0;whiteSpace=wrap;html=1;fontStyle=4" vertex="1" parent="1">
          <mxGeometry x="120" y="870" width="80" height="20" as="geometry" />
        </mxCell>
        <mxCell id="y5QNSgR7ZRJB72cQKX3N-188" style="edgeStyle=orthogonalEdgeStyle;rounded=0;orthogonalLoop=1;jettySize=auto;html=1;entryX=0;entryY=0.25;entryDx=0;entryDy=0;" edge="1" parent="1" source="y5QNSgR7ZRJB72cQKX3N-182" target="y5QNSgR7ZRJB72cQKX3N-79">
          <mxGeometry relative="1" as="geometry">
            <Array as="points">
              <mxPoint y="880" />
              <mxPoint y="455" />
            </Array>
          </mxGeometry>
        </mxCell>
        <mxCell id="y5QNSgR7ZRJB72cQKX3N-182" value="Vin" style="rounded=0;whiteSpace=wrap;html=1;fontStyle=4" vertex="1" parent="1">
          <mxGeometry x="40" y="870" width="80" height="20" as="geometry" />
        </mxCell>
        <mxCell id="y5QNSgR7ZRJB72cQKX3N-186" style="edgeStyle=orthogonalEdgeStyle;rounded=0;orthogonalLoop=1;jettySize=auto;html=1;entryX=0.5;entryY=1;entryDx=0;entryDy=0;" edge="1" parent="1" source="y5QNSgR7ZRJB72cQKX3N-183" target="y5QNSgR7ZRJB72cQKX3N-146">
          <mxGeometry relative="1" as="geometry">
            <Array as="points">
              <mxPoint x="240" y="810" />
              <mxPoint x="80" y="810" />
            </Array>
          </mxGeometry>
        </mxCell>
        <mxCell id="y5QNSgR7ZRJB72cQKX3N-183" value="Ssn" style="rounded=0;whiteSpace=wrap;html=1;fontStyle=4" vertex="1" parent="1">
          <mxGeometry x="200" y="870" width="80" height="20" as="geometry" />
        </mxCell>
        <mxCell id="y5QNSgR7ZRJB72cQKX3N-189" value="SALE" style="text;html=1;strokeColor=none;fillColor=none;align=center;verticalAlign=middle;whiteSpace=wrap;rounded=0;" vertex="1" parent="1">
          <mxGeometry x="30" y="1160" width="60" height="30" as="geometry" />
        </mxCell>
        <mxCell id="y5QNSgR7ZRJB72cQKX3N-190" value="Date" style="rounded=0;whiteSpace=wrap;html=1;" vertex="1" parent="1">
          <mxGeometry x="280" y="1190" width="80" height="20" as="geometry" />
        </mxCell>
        <mxCell id="y5QNSgR7ZRJB72cQKX3N-195" style="edgeStyle=orthogonalEdgeStyle;rounded=0;orthogonalLoop=1;jettySize=auto;html=1;entryX=0;entryY=0.5;entryDx=0;entryDy=0;" edge="1" parent="1" source="y5QNSgR7ZRJB72cQKX3N-191" target="y5QNSgR7ZRJB72cQKX3N-152">
          <mxGeometry relative="1" as="geometry">
            <Array as="points">
              <mxPoint x="160" y="1160" />
              <mxPoint x="20" y="1160" />
              <mxPoint x="20" y="1040" />
            </Array>
          </mxGeometry>
        </mxCell>
        <mxCell id="y5QNSgR7ZRJB72cQKX3N-191" value="Sid" style="rounded=0;whiteSpace=wrap;html=1;fontStyle=4" vertex="1" parent="1">
          <mxGeometry x="120" y="1190" width="80" height="20" as="geometry" />
        </mxCell>
        <mxCell id="y5QNSgR7ZRJB72cQKX3N-194" style="edgeStyle=orthogonalEdgeStyle;rounded=0;orthogonalLoop=1;jettySize=auto;html=1;entryX=0;entryY=0.5;entryDx=0;entryDy=0;" edge="1" parent="1" source="y5QNSgR7ZRJB72cQKX3N-192" target="y5QNSgR7ZRJB72cQKX3N-91">
          <mxGeometry relative="1" as="geometry">
            <Array as="points">
              <mxPoint y="1200" />
              <mxPoint y="970" />
            </Array>
          </mxGeometry>
        </mxCell>
        <mxCell id="y5QNSgR7ZRJB72cQKX3N-192" value="Vin" style="rounded=0;whiteSpace=wrap;html=1;fontStyle=4" vertex="1" parent="1">
          <mxGeometry x="40" y="1190" width="80" height="20" as="geometry" />
        </mxCell>
        <mxCell id="y5QNSgR7ZRJB72cQKX3N-196" style="edgeStyle=orthogonalEdgeStyle;rounded=0;orthogonalLoop=1;jettySize=auto;html=1;entryX=0.5;entryY=1;entryDx=0;entryDy=0;" edge="1" parent="1" source="y5QNSgR7ZRJB72cQKX3N-193" target="y5QNSgR7ZRJB72cQKX3N-155">
          <mxGeometry relative="1" as="geometry">
            <Array as="points">
              <mxPoint x="240" y="1120" />
              <mxPoint x="80" y="1120" />
            </Array>
          </mxGeometry>
        </mxCell>
        <mxCell id="y5QNSgR7ZRJB72cQKX3N-193" value="Ssn" style="rounded=0;whiteSpace=wrap;html=1;fontStyle=4" vertex="1" parent="1">
          <mxGeometry x="200" y="1190" width="80" height="20" as="geometry" />
        </mxCell>
        <mxCell id="y5QNSgR7ZRJB72cQKX3N-197" value="SALE" style="text;html=1;strokeColor=none;fillColor=none;align=center;verticalAlign=middle;whiteSpace=wrap;rounded=0;" vertex="1" parent="1">
          <mxGeometry x="30" y="1470" width="60" height="30" as="geometry" />
        </mxCell>
        <mxCell id="y5QNSgR7ZRJB72cQKX3N-198" value="Date" style="rounded=0;whiteSpace=wrap;html=1;" vertex="1" parent="1">
          <mxGeometry x="280" y="1500" width="80" height="20" as="geometry" />
        </mxCell>
        <mxCell id="y5QNSgR7ZRJB72cQKX3N-203" style="edgeStyle=orthogonalEdgeStyle;rounded=0;orthogonalLoop=1;jettySize=auto;html=1;entryX=0;entryY=0.5;entryDx=0;entryDy=0;" edge="1" parent="1" source="y5QNSgR7ZRJB72cQKX3N-199" target="y5QNSgR7ZRJB72cQKX3N-161">
          <mxGeometry relative="1" as="geometry">
            <Array as="points">
              <mxPoint x="160" y="1470" />
              <mxPoint x="20" y="1470" />
              <mxPoint x="20" y="1360" />
            </Array>
          </mxGeometry>
        </mxCell>
        <mxCell id="y5QNSgR7ZRJB72cQKX3N-199" value="Sid" style="rounded=0;whiteSpace=wrap;html=1;fontStyle=4" vertex="1" parent="1">
          <mxGeometry x="120" y="1500" width="80" height="20" as="geometry" />
        </mxCell>
        <mxCell id="y5QNSgR7ZRJB72cQKX3N-202" style="edgeStyle=orthogonalEdgeStyle;rounded=0;orthogonalLoop=1;jettySize=auto;html=1;entryX=0;entryY=0.5;entryDx=0;entryDy=0;" edge="1" parent="1" source="y5QNSgR7ZRJB72cQKX3N-200" target="y5QNSgR7ZRJB72cQKX3N-103">
          <mxGeometry relative="1" as="geometry">
            <Array as="points">
              <mxPoint y="1510" />
              <mxPoint y="1280" />
            </Array>
          </mxGeometry>
        </mxCell>
        <mxCell id="y5QNSgR7ZRJB72cQKX3N-200" value="Vin" style="rounded=0;whiteSpace=wrap;html=1;fontStyle=4" vertex="1" parent="1">
          <mxGeometry x="40" y="1500" width="80" height="20" as="geometry" />
        </mxCell>
        <mxCell id="y5QNSgR7ZRJB72cQKX3N-204" style="edgeStyle=orthogonalEdgeStyle;rounded=0;orthogonalLoop=1;jettySize=auto;html=1;entryX=0.5;entryY=1;entryDx=0;entryDy=0;" edge="1" parent="1" source="y5QNSgR7ZRJB72cQKX3N-201" target="y5QNSgR7ZRJB72cQKX3N-164">
          <mxGeometry relative="1" as="geometry">
            <Array as="points">
              <mxPoint x="240" y="1460" />
              <mxPoint x="80" y="1460" />
            </Array>
          </mxGeometry>
        </mxCell>
        <mxCell id="y5QNSgR7ZRJB72cQKX3N-201" value="Ssn" style="rounded=0;whiteSpace=wrap;html=1;fontStyle=4" vertex="1" parent="1">
          <mxGeometry x="200" y="1500" width="80" height="20" as="geometry" />
        </mxCell>
      </root>
    </mxGraphModel>
  </diagram>
</mxfile>
